<?xml version="1.0" encoding="UTF-8"?>
<svg version="1.1" xmlns="http://www.w3.org/2000/svg" width="32" height="32">
<path d="M0 0 C1.54296875 1.01953125 1.54296875 1.01953125 3.85546875 3.20703125 C4.3863208 3.6649707 4.91717285 4.12291016 5.46411133 4.59472656 C8.74879933 8.40102232 7.62665864 15.07436663 7.43359375 19.83984375 C7.08232276 23.59464587 6.47217857 26.0246853 3.79296875 28.83203125 C-2.04614713 32.66558318 -9.48438833 32.38960565 -16.14453125 31.20703125 C-19.93610864 29.13026034 -23.13817594 27.09773379 -25.14453125 23.20703125 C-25.49225876 20.4773703 -25.65453103 18.05697179 -25.64453125 15.33203125 C-25.68707031 14.28982422 -25.68707031 14.28982422 -25.73046875 13.2265625 C-25.74497858 9.37420278 -25.22389956 6.80576656 -22.86328125 3.82421875 C-16.8630247 -1.95189028 -7.90937757 -2.92459681 0 0 Z " fill="#2B2925" transform="translate(25.14453125,0.79296875)"/>
<path d="M0 0 C1.32 0.33 2.64 0.66 4 1 C4 1.99 4 2.98 4 4 C4.66 4.33 5.32 4.66 6 5 C6 3.35 6 1.7 6 0 C7.32 0.33 8.64 0.66 10 1 C10 2.32 10 3.64 10 5 C11.9600281 6.63676257 11.9600281 6.63676257 14 8 C14 8.66 14 9.32 14 10 C10.7 10 7.4 10 4 10 C4 10.66 4 11.32 4 12 C7.465 11.505 7.465 11.505 11 11 C13.54133051 16.25208305 14.86672916 22.39981251 13 28 C0.10901337 28.68853935 0.10901337 28.68853935 -3.625 26.25 C-5.74466235 24.24189882 -7.53465623 22.5236476 -9 20 C-9 19.01 -9 18.02 -9 17 C-8.34 17 -7.68 17 -7 17 C-6.9175 16.29875 -6.835 15.5975 -6.75 14.875 C-5.82787803 11.34019913 -4.0339534 9.02011262 -2 6 C-0.75675853 2.7750792 -0.75675853 2.7750792 0 0 Z " fill="#F0C75C" transform="translate(9,4)"/>
<path d="M0 0 C5.17351717 -0.20288303 9.23329476 -0.25094414 14 2 C15.65919896 2.36871088 17.3247643 2.71281674 19 3 C19.43351613 6.08880245 19.69481499 8.01851779 19 11 C16.68680255 13.8254809 14.06983553 16.02741492 11 18 C10.34 18 9.68 18 9 18 C9.01160156 17.40832031 9.02320313 16.81664063 9.03515625 16.20703125 C9.08322386 11.99768215 9.06006883 8.1077667 8 4 C7.01 3.67 6.02 3.34 5 3 C5.66 3 6.32 3 7 3 C7 2.34 7 1.68 7 1 C4.69 1.33 2.38 1.66 0 2 C0 1.34 0 0.68 0 0 Z " fill="#383022" transform="translate(13,14)"/>
<path d="M0 0 C1.54296875 1.01953125 1.54296875 1.01953125 3.85546875 3.20703125 C4.49484375 3.70203125 5.13421875 4.19703125 5.79296875 4.70703125 C6.85546875 6.20703125 6.85546875 6.20703125 6.54296875 8.39453125 C6.31609375 8.99265625 6.08921875 9.59078125 5.85546875 10.20703125 C5.31921875 9.27890625 4.78296875 8.35078125 4.23046875 7.39453125 C1.5763005 3.83235807 0.02361017 2.64984943 -4.14453125 1.20703125 C-6.86758856 0.98584428 -9.4038776 1.0652733 -12.14453125 1.20703125 C-12.47453125 1.86703125 -12.80453125 2.52703125 -13.14453125 3.20703125 C-14.13453125 3.20703125 -15.12453125 3.20703125 -16.14453125 3.20703125 C-16.02078125 4.28984375 -16.02078125 4.28984375 -15.89453125 5.39453125 C-16.22326403 9.09277505 -17.78880042 10.38015425 -20.14453125 13.20703125 C-21.2895061 15.50177165 -22.20665378 17.81544369 -23.14453125 20.20703125 C-23.80453125 20.20703125 -24.46453125 20.20703125 -25.14453125 20.20703125 C-26.00526224 7.31519383 -26.00526224 7.31519383 -22.89453125 3.51953125 C-16.6046463 -1.76969019 -7.84301984 -2.90006016 0 0 Z " fill="#6E6E6C" transform="translate(25.14453125,0.79296875)"/>
<path d="M0 0 C1.65 0.33 3.3 0.66 5 1 C3.41037341 5.03520597 1.71767682 9.01811282 0 13 C-0.66 13 -1.32 13 -2 13 C-2.05447047 11.58376784 -2.09300508 10.16691809 -2.125 8.75 C-2.14820313 7.96109375 -2.17140625 7.1721875 -2.1953125 6.359375 C-1.9828378 3.79268059 -1.28654105 2.2083933 0 0 Z " fill="#272520" transform="translate(2,8)"/>
<path d="M0 0 C0.33 1.32 0.66 2.64 1 4 C-0.28627711 5.17260611 -1.57919783 6.3379283 -2.875 7.5 C-3.59429688 8.1496875 -4.31359375 8.799375 -5.0546875 9.46875 C-7 11 -7 11 -9 11 C-9 10.01 -9 9.02 -9 8 C-7.6078125 7.4121875 -7.6078125 7.4121875 -6.1875 6.8125 C-2.77449882 4.87177384 -1.68801596 3.46981059 0 0 Z " fill="#585754" transform="translate(31,21)"/>
<path d="M0 0 C1.32 0.33 2.64 0.66 4 1 C3.67 2.65 3.34 4.3 3 6 C2.01 5.67 1.02 5.34 0 5 C0 3.35 0 1.7 0 0 Z " fill="#E1DDAA" transform="translate(15,4)"/>
<path d="M0 0 C1.32 0.33 2.64 0.66 4 1 C3.67 2.65 3.34 4.3 3 6 C2.01 5.67 1.02 5.34 0 5 C0 3.35 0 1.7 0 0 Z " fill="#E3DFAB" transform="translate(9,4)"/>
</svg>
